PathFileType	4	(X/Y/Z)	C:/Users/beibeiliu/ov580/test_trc/User2\sequence.22_training_dense_right.trc
DataRate	CameraRate	NumFrames	NumMarkers	Units	OrigDataRate	OrigDataStartFrame	OrigNumFrames
120	120	22	19	mm	120	183	364
Frame#	Time	ThumbCMC			ThumbMCP			ThumbIP			ThumbTip			IndexMCP			IndexPIP			IndexTip			MiddleMCP			MiddlePIP			MiddleTip			RingMCP			RingPIP			RingTip			PinkyMCP			PinkyPIP			PinkyTip			BackHand1			BackHand2			BackHand3	
		X0	Y0	Z0	X1	Y1	Z1	X2	Y2	Z2	X3	Y3	Z3	X4	Y4	Z4	X5	Y5	Z5	X6	Y6	Z6	X7	Y7	Z7	X8	Y8	Z8	X9	Y9	Z9	X10	Y10	Z10	X11	Y11	Z11	X12	Y12	Z12	X13	Y13	Z13	X14	Y14	Z14	X15	Y15	Z15	X16	Y16	Z16	X17	Y17	Z17	X18	Y18	Z18	
182	1.51667	27.8008	-12.6706	72.9048	6.37225	-18.7573	49.5542	-11.571	-17.7627	12.9487	-20.7167	-22.4609	-8.63595	14.1603	-0.21435	-6.07183	7.59057	-31.4525	-11.4692	18.3659	-48.2964	15.954	36.4086	-9.38721	-13.2633	26.5639	-44.6209	-13.3717	33.6258	-47.5182	30.0232	52.7853	-18.4157	-19.4481	39.7479	-50.8316	-17.2173	49.9447	-49.1973	18.3589	76.3162	-14.4334	-17.8128	61.3933	-16.0621	-38.2786	52.6371	-12.1677	-56.7044	85.5969	1.5511	30.4979	100.395	-7.88771	63.97	61.9648	11.1687	61.9261	
183	1.525	30.7292	-12.4184	73.4792	4.99376	-16.4332	49.0171	-12.9489	-17.1539	18.2912	-22.1286	-21.5861	-5.67301	17.4939	2.18049	-2.15714	3.23011	-29.2285	-7.75421	12.5337	-47.7343	20.0952	36.6966	-10.7488	-13.325	24.1354	-46.1112	-8.71471	36.967	-45.5194	30.4708	49.531	-21.1664	-22.3189	37.1234	-49.6682	-13.4409	46.1071	-46.5225	19.9403	77.6463	-16.0796	-15.4488	61.9296	-15.8833	-38.5637	45.8037	-12.1801	-59.5538	85.7621	1.6875	31.8124	99.373	-6.43692	65.0425	60.0623	11.7301	61.5255	
184	1.53333	26.3644	-8.78117	76.3436	3.91379	-12.1761	52.4348	-15.3026	-13.4168	22.0812	-22.6771	-17.5981	0.00716119	8.35513	2.92088	2.07041	-0.958602	-29.5694	-2.51005	11.5622	-45.9957	24.5019	29.2021	-9.65293	-10.9087	20.1383	-41.9946	-6.73828	32.8999	-43.2043	35.5331	44.8169	-17.4063	-16.2845	29.7113	-45.1432	-10.8056	44.2783	-43.9912	22.9485	69.1315	-13.2201	-11.2095	57.0762	-14.0958	-37.7001	42.6434	-13.1141	-56.9619	80.5722	1.64721	34.7256	93.4161	-2.74781	64.5988	58.7851	11.031	64.2895	
185	1.54167	26.4003	-8.92169	82.6914	-2.61915	-10.428	62.8549	-18.101	-10.2037	31.3146	-30.3957	-12.6156	7.45377	1.56471	5.77968	6.95798	-9.43132	-22.6556	2.12731	8.1023	-42.0813	32.6567	16.9152	-5.42026	-5.15144	11.7158	-40.2474	1.94396	26.4874	-40.8751	36.5549	34.4326	-16.1529	-15.2562	24.6471	-41.7159	-10.9592	35.1512	-40.3461	26.2452	61.0153	-9.75927	-8.22489	44.0931	-9.48333	-33.7271	31.8612	-9.92374	-52.0892	74.7729	4.92723	34.2731	93.1109	-4.88176	67.4169	56.1509	13.3225	69.7416	
186	1.55	24.4022	-7.31262	88.0278	-5.82973	-6.6377	67.2895	-23.7295	-4.31182	35.9967	-38.2875	-6.28648	15.7741	-3.7324	12.5977	16.0702	-16.7306	-19.0852	10.4563	0.734259	-37.2131	36.0264	12.1221	1.0684	1.55007	0.241156	-33.2491	4.52688	21.7974	-36.7911	43.1804	27.925	-10.6399	-12.5038	16.3863	-36.8639	-6.46186	29.0629	-37.5967	28.1234	54.3674	-5.46466	-11.7444	33.5068	-5.11188	-27.7452	19.5252	-1.89762	-45.4759	71.15	6.53459	38.3904	90.841	-1.38277	65.698	51.7834	17.9372	68.4344	
187	1.55833	23.6504	-6.22152	90.9057	-5.18995	-4.58322	68.692	-29.1135	-2.92436	43.6358	-44.3512	-3.17502	22.6139	-4.10959	16.0346	18.0099	-22.0885	-16.5653	14.4689	-2.78067	-35.3	36.5997	9.13657	3.68813	4.24079	-3.9287	-31.356	11.6282	19.1822	-33.9157	43.9646	21.3641	-5.84894	-9.0887	8.18849	-30.9561	-3.8421	26.3441	-34.9309	30.9742	48.139	-2.29426	-11.1489	29.6881	-1.63563	-30.1598	12.6163	3.50138	-46.6595	72.2835	7.76683	37.787	87.0053	0.550269	64.4019	50.6207	18.1053	70.417	
188	1.56667	24.3374	-5.496	90.4694	-8.40045	-3.7773	72.7124	-28.7269	0.975541	41.8086	-44.9681	-0.329005	23.5381	-7.74734	18.5722	18.9451	-20.0138	-13.009	13.6589	-3.93534	-33.0405	35.9492	5.92553	5.94908	3.40724	-1.89125	-28.0247	5.33855	18.5842	-33.1326	43.9718	21.2684	-2.33598	-6.51854	8.43253	-30.6207	-4.90744	26.0213	-35.9593	29.3554	46.4961	-0.876782	-5.3479	26.4732	1.45094	-26.1237	9.30108	6.60456	-43.9426	71.5608	6.73346	39.6919	85.8862	2.12838	64.7753	56.3899	17.075	72.344	
189	1.575	20.7998	-2.82196	87.6114	-6.63275	-1.92462	66.1878	-29.4119	1.70512	37.0644	-41.25	0.13474	17.6615	-2.41071	19.0712	18.4237	-19.4598	-12.3565	11.5322	-6.06827	-32.3092	34.5602	9.86897	6.37278	0.939723	-3.05355	-29.431	7.72922	15.8607	-36.4804	40.6208	23.0192	-4.50294	-10.1264	10.0447	-30.4113	-3.86181	28.6376	-36.8663	26.3842	53.2402	-3.42975	-8.2245	28.4624	-0.0747284	-26.8564	14.5192	2.5827	-43.4041	74.6159	7.93757	37.5956	88.2737	0.811458	66.6971	53.4184	18.1392	72.1618	
190	1.58333	25.0021	-5.17059	86.0715	-2.6512	-3.72924	60.5232	-23.9014	-2.32738	33.6299	-38.0456	-1.89483	10.6111	0.044971	16.4417	11.6189	-14.0693	-13.5282	4.83568	-0.458035	-35.9255	30.6035	18.4182	4.83022	-2.19161	5.01645	-32.5772	1.03641	22.5821	-38.8168	37.2684	28.8797	-9.36269	-13.0439	16.9606	-34.5017	-6.80567	34.2902	-36.6297	28.55	56.535	-5.29787	-7.02934	37.3544	-4.3627	-29.6335	22.7143	-2.89507	-48.4165	76.8238	5.98001	33.2285	91.7445	-1.30535	67.0974	54.8516	18.6182	69.4368	
191	1.59167	27.4404	-4.14648	75.5753	3.93027	-8.48721	56.305	-20.4954	-5.06713	23.3531	-33.1622	-8.71803	6.97727	8.55373	8.56629	0.72087	-5.73027	-18.5139	-2.99191	1.88944	-39.4563	22.7235	23.8929	-4.62238	-11.3643	11.77	-36.4227	-6.25102	23.9556	-43.2686	32.8311	41.4045	-15.0988	-16.3831	24.2828	-41.0012	-8.4703	37.0746	-38.8686	26.193	65.8829	-11.7592	-14.8303	49.1631	-13.3804	-36.5415	29.4381	-9.72105	-54.0843	80.5363	5.41826	33.5835	92.9681	-2.67509	64.9204	60.078	15.3327	59.8677	
192	1.6	29.5704	-5.09462	71.5865	2.87151	-10.6207	48.9532	-11.0623	-11.5985	16.4996	-26.0688	-16.542	-1.60358	13.315	4.77239	-3.10847	3.57276	-23.9795	-10.5149	10.5918	-45.5646	21.3823	32.5063	-11.4073	-16.2914	17.3042	-43.267	-7.67298	27.1623	-48.6711	30.747	44.3995	-24.8474	-20.2705	33.769	-50.9281	-11.746	42.594	-42.055	26.0153	69.2184	-18.4807	-16.0324	56.4302	-21.6964	-39.8109	45.5621	-21.6541	-59.3527	86.1124	-2.05985	29.8128	95.6364	-4.01467	59.6591	64.3937	13.6888	60.3695	
193	1.60833	34.8771	-8.65141	69.9929	7.63005	-13.5111	41.2324	-8.87553	-19.6036	16.3617	-21.1432	-24.5157	-6.8816	21.5865	-1.12515	-7.37601	6.42371	-31.2344	-12.8393	12.4264	-49.5726	20.1786	35.9153	-18.9376	-18.0654	21.8112	-48.4878	-11.5043	30.2363	-53.4733	27.7865	55.3	-31.1973	-20.5974	36.2924	-56.2495	-9.2612	47.6195	-47.5091	25.8512	80.7879	-30.053	-17.6882	64.0678	-32.2677	-43.3888	52.5038	-32.7099	-64.0235	92.924	-6.10039	23.6409	104.589	-8.68889	59.6546	68.7582	10.4383	55.765	
194	1.61667	34.3231	-8.06926	66.6898	8.99349	-16.4818	40.7561	-6.76501	-23.7366	10.4751	-15.7376	-32.6003	-8.20839	25.4165	-12.2128	-13.9739	9.89048	-40.7479	-12.5428	18.769	-56.1767	17.0931	41.0442	-28.956	-21.3199	28.0562	-59.7949	-8.86034	34.8473	-59.1631	30.4653	57.0889	-41.2414	-21.3624	42.4602	-65.3169	-10.0338	51.5549	-56.3901	24.0119	79.3494	-34.9632	-18.9815	71.4006	-43.0882	-39.8727	56.7671	-41.9662	-59.7179	92.9387	-11.8359	22.9395	105.373	-9.63155	56.7556	70.1669	9.47866	49.0816	
195	1.625	37.5681	-9.0102	62.4177	13.0517	-19.26	38.5514	-3.56279	-28.9339	12.9974	-11.8566	-38.419	-9.14005	24.9972	-18.4227	-13.5776	8.90848	-46.3725	-10.3787	14.8451	-58.076	25.057	38.9149	-32.889	-19.1968	25.5655	-63.8274	-4.81205	37.3514	-64.0793	31.959	57.8995	-49.7525	-20.6352	42.3328	-70.7596	-7.86374	51.3428	-57.4877	26.4254	82.317	-42.5236	-19.1073	72.8464	-51.8063	-39.6093	55.6407	-51.1269	-61.8298	92.206	-14.9988	26.1442	105.148	-13.3597	55.8739	72.4271	5.00303	48.0552	
196	1.63333	37.5791	-8.80757	64.3423	13.0395	-19.38	39.9903	-4.09622	-30.0293	14.8261	-18.5016	-38.9737	-4.71952	21.653	-21.2135	-13.1916	7.20988	-48.6632	-7.11204	12.1639	-59.9484	26.7532	37.0818	-39.462	-17.4017	22.9864	-68.2172	-0.470489	34.8277	-62.0222	39.4577	52.9518	-51.5293	-18.2404	39.0153	-75.7829	-2.27984	50.6091	-60.5719	29.4141	78.4007	-47.58	-14.7656	65.8793	-59.3308	-40.7093	57.2342	-63.0777	-58.88	96.2142	-19.7963	20.9206	106.938	-16.4748	57.3673	73.1527	2.91268	45.1887	
197	1.64167	38.7575	-5.37939	65.6796	10.5349	-14.4288	40.2774	-8.52356	-24.4003	15.2429	-20.1193	-36.2548	0.76415	21.4593	-19.9297	-10.5914	3.35289	-48.8749	-2.74057	11.792	-58.1079	27.0787	35.2283	-36.5405	-14.2725	16.15	-64.9593	0.308057	30.975	-60.4532	42.7089	47.0485	-54.1979	-13.9589	32.4264	-75.8865	5.1913	42.7404	-58.3758	33.0538	78.173	-56.0628	-12.9588	58.9726	-65.3054	-36.531	43.6779	-70.3348	-52.3841	91.5355	-24.5023	21.7268	103.773	-16.8271	57.8461	72.8611	5.92744	43.9618	
198	1.65	41.129	-0.945202	64.2992	13.5378	-8.97565	46.5803	-9.72512	-17.9893	19.1035	-28.2238	-27.0675	1.5258	19.5205	-13.5819	-9.57415	-0.477429	-42.9192	-1.44824	7.5764	-47.95	34.582	32.5357	-40.8021	-13.4986	7.48498	-60.2413	7.31681	21.4907	-56.142	45.2481	43.075	-57.3568	-9.99832	22.6178	-72.2745	11.5289	36.2762	-55.1404	36.3521	68.9589	-59.4318	-12.2141	50.4178	-70.5123	-32.7509	36.4549	-75.0667	-47.9083	90.3786	-27.8849	23.8438	103.045	-18.7611	51.3584	76.763	1.9813	42.9961	
199	1.65833	42.2764	4.25376	59.2248	10.3665	-0.110676	41.0636	-9.63848	-11.0191	16.7172	-27.5492	-18.9989	3.75035	16.8804	-13.1952	-10.8813	-6.56719	-30.1606	0.2114	8.83832	-37.4171	31.9971	26.1517	-36.7536	-13.1129	1.89977	-52.612	6.71358	18.8367	-49.2525	46.4332	35.2056	-55.922	-7.69204	13.3308	-63.9597	14.3636	35.0387	-50.0986	41.1149	62.2897	-62.5056	-8.59597	40.7146	-69.8089	-29.6381	24.5539	-73.1992	-44.8333	88.1792	-32.7991	19.8516	103.269	-23.7595	53.4283	77.178	6.458	40.4129	
200	1.66667	45.5615	10.1057	59.3343	15.119	7.51547	44.3325	-10.1647	-0.130008	16.7879	-29.2556	-5.43291	4.42973	17.6288	-3.4082	-10.2245	-6.10905	-22.3823	4.57337	14.5727	-23.0094	32.7858	22.541	-33.0784	-12.5803	-2.4398	-45.6007	8.11851	13.1437	-40.5983	46.4351	27.8122	-52.9994	-6.71566	8.12279	-58.7753	18.2178	32.497	-44.1991	43.1725	54.2486	-63.8242	-8.49643	30.7113	-66.6531	-26.8266	15.7997	-70.3532	-43.9251	84.6798	-30.2202	20.2847	103.441	-29.3174	53.5561	80.9163	2.42254	36.7112	
201	1.675	50.8906	18.4307	57.8961	18.0171	17.325	37.3741	-5.53247	12.5889	17.332	-26.1546	7.37448	2.15024	20.5772	2.84384	-11.4473	-4.15743	-12.7367	6.19341	19.9928	-10.7425	31.4976	22.0112	-27.6574	-12.9516	-7.78703	-30.0415	8.4975	11.3965	-26.4949	47.6435	24.6369	-47.9652	-5.1692	1.62786	-50.4226	17.3873	25.5097	-33.3775	42.4716	46.1769	-61.1782	-5.29541	26.3193	-64.8203	-22.7257	7.24523	-65.5613	-41.1735	82.1705	-38.4391	20.301	99.8984	-29.8558	49.4746	82.6479	3.62169	37.1242	
202	1.68333	57.4	20.598	49.9136	26.6205	24.1904	34.2351	0.0212989	22.3059	9.28772	-18.098	16.2245	-4.84213	21.9718	8.14274	-15.5664	-0.352683	-1.32395	4.81657	26.3815	-4	28.4949	23.6945	-18.838	-14.0196	-7.98328	-20.8639	8.72442	7.96818	-13.6244	42.9823	17.8329	-38.4227	-5.19564	-2.09934	-35.4744	20.4067	23.1926	-26.4721	42.1225	37.8801	-60.595	-4.89848	18.1002	-57.9243	-21.4632	1.82785	-61.0434	-39.7425	81.3178	-40.5807	22.2135	95.7461	-38.212	50.1823	87.3675	-2.06174	32.3424	
203	1.69167	66.043	24.6489	41.4828	36.6073	32.1483	25.9506	10.3647	28.2144	2.31074	-10.1546	27.816	-12.5746	27.7271	8.0484	-19.7809	3.9997	8.89041	0.162207	32.3228	4.59351	26.4354	20.0595	-18.6722	-16.7691	-5.61586	-10.2328	5.67021	12.6765	-6.27121	42.1523	14.6296	-37.3827	-3.74726	-2.94015	-23.1421	20.8887	26.8121	-20.3146	41.6997	30.2506	-56.6607	-5.1952	10.1214	-53.2022	-20.893	-3.1626	-54.1042	-36.8944	76.2281	-45.0409	21.9271	94.5981	-44.3988	54.2952	92.0941	-8.25594	26.282	
